
<svg xmlns="http://www.w3.org/2000/svg" viewBox="0 0 380 111.68">
  <path d="M53.8 24.31V.41h3.66a3.54 3.54 0 0 1 1.88.41 2.76 2.76 0 0 1 1 1.48 7.86 7.86 0 0 1 .31 1.16 11.25 11.25 0 0 1 .19 1.69c.05.71.08 1.64.1 2.77s0 2.61 0 4.42v4.6c0 1.17-.06 2.1-.11 2.81a16.05 16.05 0 0 1-.19 1.64 10.22 10.22 0 0 1-.27 1.09 2.47 2.47 0 0 1-1 1.45 4 4 0 0 1-1.95.38Zm3.63-1.77a1.67 1.67 0 0 0 1-.24 1.5 1.5 0 0 0 .49-.9c.06-.27.12-.58.17-.91s.09-.82.13-1.45.05-1.48.06-2.53 0-2.44 0-4.17V5.83a14 14 0 0 0-.11-1.47 7.7 7.7 0 0 0-.2-1 2.27 2.27 0 0 0-.53-1 1.41 1.41 0 0 0-.93-.26h-2v20.44ZM66 24.31V.41h5.8v1.74h-4.1v9.15h4V13h-4v9.54h4.07v1.8ZM85.53 24.31V3.41h-.13c0 .21-.05.47-.09.77s-.1.75-.18 1.33-.13 1.33-.28 2.26-.32 2.13-.54 3.61-.49 3.28-.8 5.38-.7 4.62-1.14 7.55h-.91c-.45-2.93-.83-5.45-1.16-7.56s-.6-3.92-.82-5.4-.4-2.69-.53-3.63-.25-1.72-.34-2.26l-.18-1.29a4.64 4.64 0 0 1-.07-.76h-.12v20.9h-1.52V.41h2.9q.51 4 .89 6.87c.25 1.88.46 3.45.61 4.72s.29 2.26.38 3 .17 1.31.21 1.71.07.67.09.82a2.87 2.87 0 0 1 0 .38h.2a2.87 2.87 0 0 1 0-.38c0-.15.05-.42.1-.82s.11-1 .2-1.71.23-1.73.4-3l.63-4.72c.25-1.88.56-4.18.91-6.87h2.88v23.9ZM92.25 24.31V.41h5.81v1.74H94v9.15h4V13h-4v9.54h4v1.8ZM109.17 24.31c-.61-2.7-1.14-5-1.59-6.95s-.84-3.59-1.15-4.95-.58-2.49-.78-3.37l-.49-2.16c-.13-.57-.22-1-.3-1.36s-.13-.65-.17-.94h-.13v19.73H103V.41h2.24l1.23 5.84c.34 1.62.62 3 .85 4.1s.42 2 .55 2.72.25 1.25.34 1.66.14.71.17.91l.08.52h.12V.41h1.61v23.9ZM120.41 24.31l-.57-7h-2.65l-.6 7h-1.74l2.28-23.9h2.93l2.12 23.9ZM118.8 4.83c-.06-.74-.11-1.34-.14-1.82s0-.88 0-1.24h-.13v1.24c0 .47-.08 1.08-.14 1.82l-1 10.8h2.47ZM129.22 13.13v-1.67h4c0 .38 0 .85.05 1.4s0 1.26 0 2.1v3.13c0 .84-.07 1.56-.12 2.14a12.57 12.57 0 0 1-.21 1.47c-.08.39-.17.74-.25 1.06a2.73 2.73 0 0 1-1 1.55 3.61 3.61 0 0 1-1.92.41 3.42 3.42 0 0 1-1.91-.43 2.66 2.66 0 0 1-1-1.53c-.1-.36-.2-.75-.28-1.18a13.61 13.61 0 0 1-.21-1.79c0-.75-.09-1.73-.11-2.93s0-2.77 0-4.71V7.64c0-1.16.06-2.09.11-2.81a16.41 16.41 0 0 1 .18-1.66 5.07 5.07 0 0 1 .25-1 4.31 4.31 0 0 1 .44-1 2.39 2.39 0 0 1 .6-.66 2.15 2.15 0 0 1 .8-.35 6 6 0 0 1 1.15-.16 3.3 3.3 0 0 1 2 .46 2.72 2.72 0 0 1 .95 1.47 10.22 10.22 0 0 1 .44 2.28c.06.79.1 1.55.1 2.26v.74a2.77 2.77 0 0 1 0 .49h-1.64a2.26 2.26 0 0 0 0-.42v-.81c0-.48 0-1-.07-1.7a11.66 11.66 0 0 0-.24-1.61 2.52 2.52 0 0 0-.46-1.11 1.29 1.29 0 0 0-1-.35 1.35 1.35 0 0 0-1 .32 2.33 2.33 0 0 0-.52 1.14c-.06.23-.12.51-.17.83a14.45 14.45 0 0 0-.18 1.46q0 1-.06 2.55v8.49c0 1.1 0 2 .08 2.67a13 13 0 0 0 .15 1.55c.06.36.12.68.18 1a1.83 1.83 0 0 0 .48 1 1.49 1.49 0 0 0 1 .27 1.47 1.47 0 0 0 1-.27 1.9 1.9 0 0 0 .46-1c.06-.28.13-.58.19-.9a10.51 10.51 0 0 0 .14-1.2c0-.48.06-1.06.08-1.75s0-1.55 0-2.56v-1.43a6.86 6.86 0 0 0 0-.74ZM138.21 24.31V.41H144v1.74h-4.1v9.15h4V13h-4v9.54h4.1v1.8ZM157.79 24.31V3.41h-.13c0 .21-.05.47-.09.77s-.1.75-.18 1.33-.18 1.33-.31 2.26-.32 2.13-.54 3.61-.49 3.28-.8 5.38-.7 4.62-1.14 7.55h-.92q-.66-4.39-1.15-7.56c-.32-2.12-.6-3.92-.82-5.4l-.54-3.63c-.13-.94-.24-1.69-.33-2.26s-.14-1-.19-1.29a5.86 5.86 0 0 1-.06-.76h-.13v20.9H149V.41h2.9c.34 2.69.63 5 .89 6.87s.45 3.45.61 4.72.29 2.26.38 3l.21 1.71c.05.4.07.67.09.82a2.87 2.87 0 0 1 0 .38h.13a2.87 2.87 0 0 1 0-.38c0-.15.05-.42.1-.82s.11-1 .2-1.71.23-1.73.39-3 .38-2.84.64-4.72.55-4.18.91-6.87h2.87v23.9ZM164.51 24.31V.41h5.81v1.74h-4.11v9.15h4V13h-4v9.54h4.08v1.8ZM181.43 24.31c-.61-2.7-1.14-5-1.59-6.95s-.84-3.59-1.16-4.95-.57-2.49-.77-3.37l-.49-2.16c-.13-.57-.23-1-.3-1.36s-.13-.65-.17-.94h-.13c0 .44 0 .87.05 1.29s0 .85 0 1.3v17.14h-1.61V.41h2.25l1.23 5.84c.33 1.62.62 3 .85 4.1s.41 2 .55 2.72.25 1.25.33 1.66.14.71.18.91.05.38.08.52h.12c0-.46 0-1-.05-1.65s0-1.5 0-2.58V.41h1.61v23.9ZM189.48 24.31V2.15h-2.59V.41h6.85v1.74h-2.53v22.16ZM199.45 16.32a8.47 8.47 0 0 0-.07 1V20.13c0 .39.05.7.08 1a3.43 3.43 0 0 0 .13.68 3.28 3.28 0 0 0 .2.52 1.15 1.15 0 0 0 .48.55 1.57 1.57 0 0 0 .73.12 2.34 2.34 0 0 0 .8-.11.9.9 0 0 0 .53-.55 5.49 5.49 0 0 0 .37-1.55 21.59 21.59 0 0 0 .13-2.71v-2.71a2.72 2.72 0 0 0-.08-.5c0-.11-.06-.2-.08-.29a1.32 1.32 0 0 0-.24-.42 4.76 4.76 0 0 0-.42-.46 6.27 6.27 0 0 0-.67-.57l-.82-.63-.77-.61c-.24-.2-.43-.37-.55-.49a5 5 0 0 1-.55-.64 2.69 2.69 0 0 1-.43-.78 5.25 5.25 0 0 1-.16-.6c0-.21-.08-.48-.11-.81s-.05-.75-.06-1.26 0-1.16 0-1.94 0-1.42.08-2a7.18 7.18 0 0 1 .27-1.46 2.63 2.63 0 0 1 1-1.49A3.43 3.43 0 0 1 201 0a3.59 3.59 0 0 1 1.88.39 2.46 2.46 0 0 1 .93 1.16 5.43 5.43 0 0 1 .36 1.45 14.9 14.9 0 0 1 .11 2v1.74c0 .47-.07.82-.11 1.07h-1.52c0-.23.07-.54.1-.93s0-.89 0-1.5a11.41 11.41 0 0 0-.08-1.38 7.14 7.14 0 0 0-.18-1.05A1.68 1.68 0 0 0 202 2a1.57 1.57 0 0 0-1-.27 1.35 1.35 0 0 0-.91.27 1.83 1.83 0 0 0-.48 1 7.94 7.94 0 0 0-.17 1.12c0 .39-.05.88-.05 1.47v2.93a2.82 2.82 0 0 0 .06.55 2.13 2.13 0 0 0 .14.37 2.65 2.65 0 0 0 .57.82 3.28 3.28 0 0 0 .59.5l.82.6.83.62a5.34 5.34 0 0 1 .67.55 4.51 4.51 0 0 1 .58.63 2.7 2.7 0 0 1 .36.7 1.67 1.67 0 0 1 .16.41 4.09 4.09 0 0 1 .11.64c0 .29 0 .68.07 1.19s0 1.17 0 2a25.42 25.42 0 0 1-.17 3.23 7.65 7.65 0 0 1-.52 2 2.11 2.11 0 0 1-1 1.13 4.34 4.34 0 0 1-1.74.29 3 3 0 0 1-1.77-.43 2.76 2.76 0 0 1-.94-1.37 7 7 0 0 1-.34-1.49 21.33 21.33 0 0 1-.11-2.43v-1.59c0-.43.06-.79.1-1.09ZM216.41 24.31V.41h5.8v1.74h-4.1v9.15h4V13h-4v9.54h4.07v1.8ZM229.13 24.31V2.15h-2.59V.41h6.85v1.74h-2.53v22.16ZM246.33 16.32a8.25 8.25 0 0 0-.08 1V20.13c0 .39 0 .7.08 1a4.47 4.47 0 0 0 .12.68 3.33 3.33 0 0 0 .21.52 1.14 1.14 0 0 0 .47.55 1.62 1.62 0 0 0 .7.14 2.38 2.38 0 0 0 .8-.11.89.89 0 0 0 .52-.55 5.12 5.12 0 0 0 .38-1.55 21.59 21.59 0 0 0 .13-2.71v-2.71a2.94 2.94 0 0 0-.07-.5 2.16 2.16 0 0 1-.08-.29 1.85 1.85 0 0 0-.24-.42 5.13 5.13 0 0 0-.43-.46 6 6 0 0 0-.66-.57l-.82-.63-.77-.61c-.25-.2-.43-.37-.56-.49a5.91 5.91 0 0 1-.55-.64A2.66 2.66 0 0 1 245 10a3.77 3.77 0 0 1-.16-.6c0-.21-.08-.48-.11-.81s-.06-.75-.07-1.26 0-1.16 0-1.94a19.15 19.15 0 0 1 .08-2 7.18 7.18 0 0 1 .26-1.46 2.62 2.62 0 0 1 1-1.49 3.49 3.49 0 0 1 1.9-.44 3.59 3.59 0 0 1 1.88.39 2.46 2.46 0 0 1 .93 1.16 5.43 5.43 0 0 1 .34 1.45 16.69 16.69 0 0 1 .11 2v1.74a9.14 9.14 0 0 1-.16 1.09h-1.51a8.11 8.11 0 0 0 .09-.93V5.4a14.1 14.1 0 0 0-.03-1.4 6 6 0 0 0-.19-1.05 1.62 1.62 0 0 0-.5-1 1.57 1.57 0 0 0-1-.27A1.38 1.38 0 0 0 247 2a1.76 1.76 0 0 0-.47 1 7.94 7.94 0 0 0-.17 1.12v4.4a2.82 2.82 0 0 0 .06.55 2.13 2.13 0 0 0 .14.37 2.65 2.65 0 0 0 .57.82 3.54 3.54 0 0 0 .58.5l.82.6.84.62a6 6 0 0 1 .66.55 4.1 4.1 0 0 1 .59.63 3.5 3.5 0 0 1 .36.7 2.19 2.19 0 0 1 .16.41 4.09 4.09 0 0 1 .11.64c0 .29 0 .68.06 1.19s0 1.17 0 2a23.45 23.45 0 0 1-.18 3.23 7.28 7.28 0 0 1-.52 2 2.07 2.07 0 0 1-1 1.13 4.28 4.28 0 0 1-1.73.29 3 3 0 0 1-1.77-.43 2.78 2.78 0 0 1-1-1.37 6.49 6.49 0 0 1-.33-1.49 21.33 21.33 0 0 1-.11-2.43v-1.59a9.5 9.5 0 0 1 .1-1.09ZM256.24 24.31V.41h5.81v1.74H258v9.15h4V13h-4v9.54h4v1.8ZM272.5 24.31c0-.15-.08-.3-.11-.46s-.06-.39-.09-.71-.07-.73-.11-1.25-.08-1.2-.1-2.07-.07-1.67-.09-2.25-.05-1.05-.08-1.41-.07-.64-.11-.85-.1-.41-.16-.6a1.25 1.25 0 0 0-1.3-.91h-1.61v10.51H267V.41h3.85a2.89 2.89 0 0 1 1.36.28 2.33 2.33 0 0 1 .88.83 3.83 3.83 0 0 1 .35.64 5.38 5.38 0 0 1 .27 1 14.25 14.25 0 0 1 .17 1.48c0 .59.06 1.34.06 2.24v2c0 .54 0 1-.08 1.31a8.37 8.37 0 0 1-.12.92 4.68 4.68 0 0 1-.21.73 1.68 1.68 0 0 1-1.06 1.16v.12a1.22 1.22 0 0 1 .54.49 3.05 3.05 0 0 1 .28.68c.08.3.15.57.21.84a9.16 9.16 0 0 1 .12.94c0 .37.06.82.1 1.36s.06 1.22.11 2 .08 1.7.11 2.25.06 1 .09 1.31a6.72 6.72 0 0 0 .1.7 3.54 3.54 0 0 0 .11.44v.13Zm-2.21-12.09a3.05 3.05 0 0 0 .9-.11 1.16 1.16 0 0 0 .59-.56A3 3 0 0 0 272 11a5.56 5.56 0 0 0 .15-.82 11 11 0 0 0 .08-1.31V5.06c0-.45 0-.83-.06-1.11a2.83 2.83 0 0 0-.13-.66 3.89 3.89 0 0 0-.2-.49 1.15 1.15 0 0 0-1.07-.67h-2v10.09ZM280.3 24.31 278 .41h1.83q.45 5.11.76 8.71c.21 2.4.39 4.41.52 6s.25 2.91.33 3.85.15 1.68.18 2.2.05.87.06 1.07 0 .36 0 .49h.12v-.49c0-.2 0-.56.06-1.07s.09-1.25.18-2.2.19-2.23.33-3.85.31-3.62.52-6 .46-5.3.76-8.73h1.8l-2.4 23.9ZM290.27 24.31V.41H292v23.9ZM304 15.15v1.95c0 .86 0 1.62-.07 2.26s-.09 1.19-.15 1.64-.13.83-.19 1.12a7.07 7.07 0 0 1-.19.7 2.55 2.55 0 0 1-1 1.46 3.39 3.39 0 0 1-1.77.4 3.65 3.65 0 0 1-2-.43 2.66 2.66 0 0 1-1-1.53 8.93 8.93 0 0 1-.28-1.2 15.21 15.21 0 0 1-.21-1.86c-.05-.78-.09-1.77-.11-3s0-2.72 0-4.58 0-3.57.05-4.78.07-2.17.14-2.87a15.84 15.84 0 0 1 .2-1.6c.08-.35.16-.68.24-1a2.68 2.68 0 0 1 1-1.5 3.44 3.44 0 0 1 1.9-.33 4 4 0 0 1 1.84.39 2.7 2.7 0 0 1 1.13 1.79 12.44 12.44 0 0 1 .35 1.94A29.12 29.12 0 0 1 304 7v2.15h-1.64V7.07q0-1.49-.09-2.49a11.52 11.52 0 0 0-.27-1.64 1.57 1.57 0 0 0-.52-1 1.63 1.63 0 0 0-.94-.26 1.41 1.41 0 0 0-.94.27 1.79 1.79 0 0 0-.48 1 7.87 7.87 0 0 0-.2 1c-.05.36-.1.87-.13 1.52s-.05 1.51-.06 2.57 0 2.45 0 4.15v4.22c0 1.11.05 2 .08 2.7s.08 1.23.13 1.62.11.72.17 1a1.73 1.73 0 0 0 .49 1 1.63 1.63 0 0 0 1 .27 1.33 1.33 0 0 0 .84-.25 1.72 1.72 0 0 0 .45-.89 18.08 18.08 0 0 0 .45-4.61v-2ZM309.09 24.31V.41h5.81v1.74h-4.11v9.15h4V13h-4v9.54h4.08v1.8ZM321.24 16.32a8.25 8.25 0 0 0-.08 1V20.13c0 .39.05.7.08 1a4.47 4.47 0 0 0 .12.68 3.33 3.33 0 0 0 .21.52 1.09 1.09 0 0 0 .47.55 1.62 1.62 0 0 0 .7.14 2.38 2.38 0 0 0 .8-.11.89.89 0 0 0 .52-.55 5.12 5.12 0 0 0 .38-1.55 23.71 23.71 0 0 0 .13-2.71v-1.71c0-.42 0-.74-.05-1a2.06 2.06 0 0 0-.08-.5c0-.11-.05-.2-.07-.29a1.85 1.85 0 0 0-.24-.42c-.1-.12-.24-.27-.43-.46a7.18 7.18 0 0 0-.66-.57l-.82-.63-.77-.61c-.25-.2-.43-.37-.56-.49a5.91 5.91 0 0 1-.55-.64 2.66 2.66 0 0 1-.42-.78 3.77 3.77 0 0 1-.16-.6 6.13 6.13 0 0 1-.11-.81c0-.33-.06-.75-.07-1.26s0-1.16 0-1.94a19.15 19.15 0 0 1 .08-2 7.18 7.18 0 0 1 .27-1.46 2.62 2.62 0 0 1 1-1.49 3.49 3.49 0 0 1 1.9-.44 3.59 3.59 0 0 1 1.88.39 2.46 2.46 0 0 1 .93 1.16A5.43 5.43 0 0 1 326 3a16.69 16.69 0 0 1 .11 2c0 .69 0 1.27-.05 1.74s-.07.82-.11 1.07h-1.55a8.11 8.11 0 0 0 .09-.93v-1.5a14.1 14.1 0 0 0-.03-1.38 6 6 0 0 0-.19-1.05 1.62 1.62 0 0 0-.5-1 1.58 1.58 0 0 0-1-.27 1.38 1.38 0 0 0-.92.27 1.76 1.76 0 0 0-.47 1 6.71 6.71 0 0 0-.17 1.12c0 .39-.05.88-.05 1.47v2.93a2.82 2.82 0 0 0 .06.55 2.13 2.13 0 0 0 .14.37 2.65 2.65 0 0 0 .57.82 3.54 3.54 0 0 0 .58.5l.82.6.84.62a6 6 0 0 1 .66.55 4.1 4.1 0 0 1 .59.63 3.5 3.5 0 0 1 .36.7 2.19 2.19 0 0 1 .16.41 4.09 4.09 0 0 1 .11.64c0 .29.05.68.06 1.19s0 1.17 0 2a23.45 23.45 0 0 1-.18 3.23 7.28 7.28 0 0 1-.52 2 2.07 2.07 0 0 1-1 1.13 4.28 4.28 0 0 1-1.73.29 3 3 0 0 1-1.77-.43 2.78 2.78 0 0 1-.95-1.37 6.49 6.49 0 0 1-.33-1.49 21.33 21.33 0 0 1-.03-2.41v-1.59a9.5 9.5 0 0 1 .1-1.09ZM91.66 101.34q-.61-7.7-1.23-15.43c-2.67.27-5.33.54-8 .83q-.69 8-1.39 16-8.31 1.17-16.59 2.53Q69 69 73.52 34h27.74q3.72 33.12 7.47 65.34-8.53.91-17.07 2ZM87.27 48.2h-1.15q-1.42 12.27-2.84 24.62l6.52-.5q-1.26-12-2.53-24.12ZM149.08 34h16.39q-.06 21.28-.13 42.57c-.08 2.54-.22 4.66-.44 6.34a31.25 31.25 0 0 1-.8 4.25A12.89 12.89 0 0 1 163 90a18.42 18.42 0 0 1-1.48 2.2 9.74 9.74 0 0 1-2.5 2.25 14 14 0 0 1-3.58 1.55 31.35 31.35 0 0 1-5 1q-2.85.35-6.66.58a57.23 57.23 0 0 1-11.73-.16 9.12 9.12 0 0 1-6-3.19c-.56-.69-1.08-1.39-1.57-2.11a10.34 10.34 0 0 1-1.25-2.82 23.88 23.88 0 0 1-.76-4.34c-.16-1.73-.23-3.93-.21-6.58L122.6 34h16.92q-.14 21.72-.26 43.44a28.78 28.78 0 0 0 .14 3.47 3.46 3.46 0 0 0 .68 1.87 2.14 2.14 0 0 0 1.47.76 15.41 15.41 0 0 0 2.53 0 14.62 14.62 0 0 0 2.49-.28 2.46 2.46 0 0 0 1.43-.88 4 4 0 0 0 .69-1.92 29.39 29.39 0 0 0 .18-3.46ZM182.33 95.13l.06-61.13H206a35 35 0 0 1 8.88.94 13.19 13.19 0 0 1 5.69 2.93 11.1 11.1 0 0 1 3.11 5.13 28.49 28.49 0 0 1 .92 7.65 45.78 45.78 0 0 1-.24 5.47 11 11 0 0 1-.93 3.5 6.9 6.9 0 0 1-1.73 2.25 13.56 13.56 0 0 1-2.63 1.66v.57c1.06.51 2 1 2.8 1.44a6.08 6.08 0 0 1 2.13 2.15 11.42 11.42 0 0 1 1.34 4.12 49.85 49.85 0 0 1 .45 7.42 29.7 29.7 0 0 1-.81 7.61 10.42 10.42 0 0 1-2.89 5 12 12 0 0 1-5.54 2.73 36.8 36.8 0 0 1-8.89.68Q195 95 182.33 95.13Zm21.44-36c1.62 0 2.72-.46 3.32-1.43s.89-2.83.88-5.58c0-2.43-.38-4-1.11-4.82a4.64 4.64 0 0 0-3.53-1.19h-4.42v13Zm.46 23.7a4.69 4.69 0 0 0 3.54-1.07c.74-.74 1.11-2.3 1.1-4.68q0-4.22-1-6a3.47 3.47 0 0 0-3.28-1.82l-5.7-.05v13.57ZM241.83 96.82q-.2-31.41-.38-62.82h16.92q.24 32.07.47 64.14-8.51-.75-17.01-1.32ZM311.16 104.6C304.8 91 298.43 78 292.05 65.48h-.63l.3 36.34q-7.52-1-15.05-1.84L276.13 34h16.18q5.69 11.83 11.34 24.16h.63q-.09-12.09-.2-24.17h15.14l.54 72q-4.29-.71-8.6-1.39ZM31.86 111.35l.14.33q11.8-2.46 23.65-4.56v-.34q-11.9 2.1-23.79 4.57ZM65.46 34Q32.73 34 0 34.06q3.44 9 6.85 17.67 28.23-1.47 56.52-2.49c.7-5.06 1.4-10.15 2.09-15.24ZM62.89 52.81Q35.62 54 8.42 55.74q3.42 8.58 6.81 16.83 22.77-2.5 45.58-4.34 1.04-7.74 2.08-15.42ZM60.33 71.8q-21.81 2-43.54 4.55c2.26 5.46 4.52 10.8 6.77 16.06q17.3-2.8 34.69-5 1.04-7.85 2.08-15.61Z"/>
  <path d="M57.77 91q-16.37 2.22-32.66 5 3.38 7.8 6.75 15.33 11.88-2.47 23.83-4.57 1.05-7.9 2.08-15.76ZM327.71 107.39q10.17 1.83 20.29 3.93c.05-.1.09-.21.14-.32q-10.18-2.11-20.43-4ZM380 33.71h-52.8q.06 7.82.11 15.63 22.94.88 45.84 2 3.42-8.62 6.85-17.63ZM364.77 72.2q3.39-8.27 6.81-16.84-22.09-1.36-44.25-2.42.06 7.83.11 15.64 18.71 1.59 37.33 3.62ZM356.44 92q3.38-7.87 6.77-16.06-17.83-2.12-35.74-3.8.06 7.81.11 15.64Q342 89.73 356.44 92Z"/>
  <path d="M348.14 111q3.38-7.53 6.74-15.34-13.61-2.32-27.28-4.24.06 7.81.11 15.63Q338 108.9 348.14 111Z"/>
</svg>
